<svg id='Fonticons_24' width='24' height='24' viewBox='0 0 24 24' xmlns='http://www.w3.org/2000/svg' xmlns:xlink='http://www.w3.org/1999/xlink'><rect width='24' height='24' stroke='none' fill='#000000' opacity='0'/>


<g transform="matrix(0.45 0 0 0.45 12 12)" >
<path style="stroke: none; stroke-width: 1; stroke-dasharray: none; stroke-linecap: butt; stroke-dashoffset: 0; stroke-linejoin: miter; stroke-miterlimit: 4; fill: rgb(0,0,0); fill-rule: nonzero; opacity: 1;" transform=" translate(-25, -25)" d="M 41.332031 3 L 8.667969 3 C 5.542969 3 3 5.542969 3 8.667969 L 3 41.335938 C 3 44.457031 5.542969 47 8.667969 47 L 41.332031 47 C 44.457031 47 47 44.457031 47 41.332031 L 47 8.667969 C 47 5.542969 44.457031 3 41.332031 3 Z M 21 17 C 19.0625 17 19 19 19 19 L 19 23 L 25 23 L 24 27 L 19 27 L 19 37 L 24 38 L 24 40 L 11 40 L 11 38 L 13 37 L 13 27 L 11 27 L 11 23 L 13 23 L 13 20 C 13 20 13.121094 13 20 13 C 26.804688 13 27 19 27 19 L 22.953125 19.972656 L 22.953125 18.796875 C 22.953125 18.796875 22.867188 17 21 17 Z M 39 40 L 28 40 L 28 38 L 30.417969 37.699219 C 30.765625 37.582031 31 37.351563 31 37 L 31 28 C 31 27.648438 30.765625 27.417969 30.417969 27.300781 L 28 26 L 30 23 L 37 23 L 37 37 C 37 37.351563 37.234375 37.582031 37.582031 37.699219 L 39 38 Z M 36.875 16 L 37.75 19.25 L 37 20 L 34 18.375 L 31 20 L 30.25 19.25 L 31.125 16 L 29 13.75 L 29.375 12.75 L 32.125 12.75 L 33.625 10 L 34.5 10 L 36 12.75 L 38.625 12.75 L 39 13.625 Z" stroke-linecap="round" />
</g>
</svg>